<svg xmlns="http://www.w3.org/2000/svg" viewBox="0 0 18 22">
  <rect x="0" y="0" width="18" height="22" rx="2" fill="#00a07a"/>
  <rect x="1" y="1" width="16" height="6" rx="1" fill="#e0f5ef"/>
  <rect x="1" y="1" width="16" height="1"  fill="#002B7F"/>
  <rect x="1" y="2" width="16" height="1"  fill="#FFFFFF"/>
  <rect x="1" y="3" width="16" height="2"  fill="#CE1126"/>
  <rect x="1" y="5" width="16" height="1"  fill="#FFFFFF"/>
  <rect x="1" y="6" width="16" height="1"  fill="#002B7F"/>
  <rect x="1"  y="9"  width="3" height="3" rx="0.5" fill="#009068"/>
  <rect x="5"  y="9"  width="3" height="3" rx="0.5" fill="#009068"/>
  <rect x="9"  y="9"  width="3" height="3" rx="0.5" fill="#009068"/>
  <rect x="13" y="9"  width="4" height="3" rx="0.5" fill="#00c896"/>
  <rect x="1"  y="13" width="3" height="3" rx="0.5" fill="#009068"/>
  <rect x="5"  y="13" width="3" height="3" rx="0.5" fill="#009068"/>
  <rect x="9"  y="13" width="3" height="3" rx="0.5" fill="#009068"/>
  <rect x="13" y="13" width="4" height="6" rx="0.5" fill="#00c896"/>
  <rect x="1"  y="17" width="7" height="3" rx="0.5" fill="#009068"/>
  <rect x="9"  y="17" width="3" height="3" rx="0.5" fill="#009068"/>
</svg>